<?xml version="1.0" encoding="utf-8"?>
<!-- Copyright: icomonstr. https://iconmonstr.com/christmas-18-svg/ -->
<svg version="1.1" id="Ebene_1" xmlns="http://www.w3.org/2000/svg" xmlns:xlink="http://www.w3.org/1999/xlink" x="0px" y="0px"
	 viewBox="0 0 24 24" style="enable-background:new 0 0 24 24;" xml:space="preserve">
<style type="text/css">
	.st0{fill:#000033;}
	.st1{fill:#FFFF66;}
</style>
<rect class="st0" width="24" height="24"/>
<path class="st1" d="M16.7,9.5c-1.2-1.2-2.2-1.4-2.5-2.8H9.8C9.4,8.1,8.5,8.3,7.3,9.5c-1.2,1.2-2,2.9-2,4.7c0,3.7,3,6.7,6.7,6.7
	s6.7-3,6.7-6.7C18.7,12.4,18,10.8,16.7,9.5z M8.5,14.9l0.3-1.5l-1.1-1.1l1.5-0.2l0.7-1.4l0.7,1.4l1.5,0.2l-1.1,1.1l0.3,1.5l-1.3-0.7
	C9.8,14.1,8.5,14.9,8.5,14.9z M12.9,18.4l-1-0.5l-1,0.5l0.2-1.1l-0.8-0.8l1.1-0.2l0.5-1l0.5,1l1.1,0.2l-0.8,0.8
	C12.7,17.3,12.9,18.4,12.9,18.4z M13.1,12l0.1-0.7l-0.5-0.5l0.7-0.1l0.3-0.6l0.3,0.6l0.7,0.1l-0.5,0.5l0.1,0.7l-0.6-0.3
	C13.7,11.6,13.1,12,13.1,12z M15.8,15.4L15,14.9l-0.8,0.4l0.2-0.9l-0.7-0.6l0.9-0.1l0.4-0.8l0.4,0.8l0.9,0.1l-0.7,0.6L15.8,15.4z
	 M14.2,4.9c-1,0-0.8-1.9-2.2-1.9c-1.4,0-1.2,1.9-2.2,1.9l0,1.1h4.5V4.9z M12,5.3c-0.4,0-0.7-0.3-0.7-0.7c0-0.4,0.3-0.7,0.7-0.7
	s0.7,0.3,0.7,0.7C12.7,4.9,12.4,5.3,12,5.3z"/>
</svg>
